<mxfile host="app.diagrams.net" agent="Mozilla/5.0 (Windows NT 10.0; Win64; x64) AppleWebKit/537.36 (KHTML, like Gecko) Chrome/129.0.0.0 Safari/537.36" version="24.7.16">
  <diagram id="C5RBs43oDa-KdzZeNtuy" name="Page-1">
    <mxGraphModel dx="911" dy="526" grid="1" gridSize="10" guides="1" tooltips="1" connect="1" arrows="1" fold="1" page="1" pageScale="1" pageWidth="827" pageHeight="1169" math="0" shadow="0">
      <root>
        <mxCell id="WIyWlLk6GJQsqaUBKTNV-0" />
        <mxCell id="WIyWlLk6GJQsqaUBKTNV-1" parent="WIyWlLk6GJQsqaUBKTNV-0" />
        <mxCell id="mvckCps3GvG-LsRMbmpY-82" value="Start" style="ellipse;whiteSpace=wrap;html=1;fontSize=12;fontStyle=0;fontColor=#FFFFFF;labelBackgroundColor=none;" vertex="1" parent="WIyWlLk6GJQsqaUBKTNV-1">
          <mxGeometry x="508" y="20" width="120" height="80" as="geometry" />
        </mxCell>
        <mxCell id="mvckCps3GvG-LsRMbmpY-83" value="" style="endArrow=none;html=1;rounded=0;entryX=0.5;entryY=1;entryDx=0;entryDy=0;fontColor=#FFFFFF;labelBackgroundColor=none;" edge="1" parent="WIyWlLk6GJQsqaUBKTNV-1" target="mvckCps3GvG-LsRMbmpY-82">
          <mxGeometry width="50" height="50" relative="1" as="geometry">
            <mxPoint x="568" y="150" as="sourcePoint" />
            <mxPoint x="594" y="230" as="targetPoint" />
          </mxGeometry>
        </mxCell>
        <mxCell id="mvckCps3GvG-LsRMbmpY-84" value="Is WaterLevel â‰¤ 5" style="shape=parallelogram;perimeter=parallelogramPerimeter;whiteSpace=wrap;html=1;fixedSize=1;fontStyle=0;fontSize=12;fontColor=#FFFFFF;labelBackgroundColor=none;" vertex="1" parent="WIyWlLk6GJQsqaUBKTNV-1">
          <mxGeometry x="483" y="150" width="170" height="90" as="geometry" />
        </mxCell>
        <mxCell id="mvckCps3GvG-LsRMbmpY-85" value="" style="endArrow=none;html=1;rounded=0;entryX=0.5;entryY=1;entryDx=0;entryDy=0;fontColor=#FFFFFF;labelBackgroundColor=none;" edge="1" parent="WIyWlLk6GJQsqaUBKTNV-1">
          <mxGeometry width="50" height="50" relative="1" as="geometry">
            <mxPoint x="566" y="290" as="sourcePoint" />
            <mxPoint x="566" y="240" as="targetPoint" />
          </mxGeometry>
        </mxCell>
        <mxCell id="mvckCps3GvG-LsRMbmpY-87" value="Yes" style="text;html=1;align=center;verticalAlign=middle;resizable=0;points=[];autosize=1;strokeColor=none;fillColor=none;fontColor=#FFFFFF;labelBackgroundColor=none;" vertex="1" parent="WIyWlLk6GJQsqaUBKTNV-1">
          <mxGeometry x="564" y="248" width="40" height="30" as="geometry" />
        </mxCell>
        <mxCell id="mvckCps3GvG-LsRMbmpY-88" value="" style="endArrow=none;html=1;rounded=0;exitX=1;exitY=0.5;exitDx=0;exitDy=0;fontColor=#FFFFFF;labelBackgroundColor=none;" edge="1" parent="WIyWlLk6GJQsqaUBKTNV-1" source="mvckCps3GvG-LsRMbmpY-84">
          <mxGeometry width="50" height="50" relative="1" as="geometry">
            <mxPoint x="578" y="160" as="sourcePoint" />
            <mxPoint x="714" y="195" as="targetPoint" />
          </mxGeometry>
        </mxCell>
        <mxCell id="mvckCps3GvG-LsRMbmpY-90" value="No" style="text;html=1;align=center;verticalAlign=middle;resizable=0;points=[];autosize=1;strokeColor=none;fillColor=none;fontColor=#FFFFFF;labelBackgroundColor=none;" vertex="1" parent="WIyWlLk6GJQsqaUBKTNV-1">
          <mxGeometry x="656" y="168" width="40" height="30" as="geometry" />
        </mxCell>
        <mxCell id="mvckCps3GvG-LsRMbmpY-91" value="" style="endArrow=none;html=1;rounded=0;entryX=0.5;entryY=1;entryDx=0;entryDy=0;fontColor=#FFFFFF;labelBackgroundColor=none;" edge="1" parent="WIyWlLk6GJQsqaUBKTNV-1">
          <mxGeometry width="50" height="50" relative="1" as="geometry">
            <mxPoint x="564" y="400" as="sourcePoint" />
            <mxPoint x="564" y="350" as="targetPoint" />
          </mxGeometry>
        </mxCell>
        <mxCell id="mvckCps3GvG-LsRMbmpY-92" value="Is waterLevel &amp;gt; 18" style="shape=parallelogram;perimeter=parallelogramPerimeter;whiteSpace=wrap;html=1;fixedSize=1;fontStyle=0;fontSize=12;fontColor=#FFFFFF;labelBackgroundColor=none;" vertex="1" parent="WIyWlLk6GJQsqaUBKTNV-1">
          <mxGeometry x="476" y="400" width="170" height="90" as="geometry" />
        </mxCell>
        <mxCell id="mvckCps3GvG-LsRMbmpY-93" value="No" style="text;html=1;align=center;verticalAlign=middle;resizable=0;points=[];autosize=1;strokeColor=none;fillColor=none;fontColor=#FFFFFF;labelBackgroundColor=none;" vertex="1" parent="WIyWlLk6GJQsqaUBKTNV-1">
          <mxGeometry x="653" y="427" width="40" height="30" as="geometry" />
        </mxCell>
        <mxCell id="mvckCps3GvG-LsRMbmpY-94" value="" style="endArrow=none;html=1;rounded=0;exitX=1;exitY=0.5;exitDx=0;exitDy=0;fontColor=#FFFFFF;labelBackgroundColor=none;" edge="1" parent="WIyWlLk6GJQsqaUBKTNV-1">
          <mxGeometry width="50" height="50" relative="1" as="geometry">
            <mxPoint x="637.5" y="450" as="sourcePoint" />
            <mxPoint x="708.5" y="450" as="targetPoint" />
          </mxGeometry>
        </mxCell>
        <mxCell id="mvckCps3GvG-LsRMbmpY-95" value="" style="endArrow=none;html=1;rounded=0;entryX=0.5;entryY=1;entryDx=0;entryDy=0;fontColor=#FFFFFF;labelBackgroundColor=none;" edge="1" parent="WIyWlLk6GJQsqaUBKTNV-1">
          <mxGeometry width="50" height="50" relative="1" as="geometry">
            <mxPoint x="564" y="540" as="sourcePoint" />
            <mxPoint x="564" y="490" as="targetPoint" />
          </mxGeometry>
        </mxCell>
        <mxCell id="mvckCps3GvG-LsRMbmpY-97" value="Yes" style="text;html=1;align=center;verticalAlign=middle;resizable=0;points=[];autosize=1;strokeColor=none;fillColor=none;fontColor=#FFFFFF;labelBackgroundColor=none;" vertex="1" parent="WIyWlLk6GJQsqaUBKTNV-1">
          <mxGeometry x="563" y="507" width="40" height="30" as="geometry" />
        </mxCell>
        <mxCell id="mvckCps3GvG-LsRMbmpY-115" style="edgeStyle=orthogonalEdgeStyle;rounded=0;orthogonalLoop=1;jettySize=auto;html=1;exitX=0.5;exitY=0;exitDx=0;exitDy=0;entryX=0.75;entryY=0;entryDx=0;entryDy=0;fontColor=#FFFFFF;labelBackgroundColor=none;" edge="1" parent="WIyWlLk6GJQsqaUBKTNV-1" source="mvckCps3GvG-LsRMbmpY-108" target="mvckCps3GvG-LsRMbmpY-84">
          <mxGeometry relative="1" as="geometry">
            <Array as="points">
              <mxPoint x="775" y="130" />
              <mxPoint x="611" y="130" />
            </Array>
          </mxGeometry>
        </mxCell>
        <mxCell id="mvckCps3GvG-LsRMbmpY-108" value="Continue Monitoring" style="rounded=1;whiteSpace=wrap;html=1;fontColor=#FFFFFF;labelBackgroundColor=none;" vertex="1" parent="WIyWlLk6GJQsqaUBKTNV-1">
          <mxGeometry x="715" y="166" width="120" height="50" as="geometry" />
        </mxCell>
        <mxCell id="mvckCps3GvG-LsRMbmpY-111" style="edgeStyle=orthogonalEdgeStyle;rounded=0;orthogonalLoop=1;jettySize=auto;html=1;entryX=0.75;entryY=0;entryDx=0;entryDy=0;exitX=0.5;exitY=0;exitDx=0;exitDy=0;fontColor=#FFFFFF;labelBackgroundColor=none;" edge="1" parent="WIyWlLk6GJQsqaUBKTNV-1" source="mvckCps3GvG-LsRMbmpY-109" target="mvckCps3GvG-LsRMbmpY-92">
          <mxGeometry relative="1" as="geometry">
            <Array as="points">
              <mxPoint x="767" y="390" />
              <mxPoint x="604" y="390" />
            </Array>
          </mxGeometry>
        </mxCell>
        <mxCell id="mvckCps3GvG-LsRMbmpY-109" value="Continue Pumping" style="rounded=1;whiteSpace=wrap;html=1;fontColor=#FFFFFF;labelBackgroundColor=none;" vertex="1" parent="WIyWlLk6GJQsqaUBKTNV-1">
          <mxGeometry x="707" y="420" width="120" height="50" as="geometry" />
        </mxCell>
        <mxCell id="mvckCps3GvG-LsRMbmpY-113" style="edgeStyle=orthogonalEdgeStyle;rounded=0;orthogonalLoop=1;jettySize=auto;html=1;entryX=0;entryY=0.5;entryDx=0;entryDy=0;fontColor=#FFFFFF;labelBackgroundColor=none;" edge="1" parent="WIyWlLk6GJQsqaUBKTNV-1" source="mvckCps3GvG-LsRMbmpY-112" target="mvckCps3GvG-LsRMbmpY-84">
          <mxGeometry relative="1" as="geometry">
            <Array as="points">
              <mxPoint x="440" y="565" />
              <mxPoint x="440" y="195" />
            </Array>
          </mxGeometry>
        </mxCell>
        <mxCell id="mvckCps3GvG-LsRMbmpY-112" value="Turn Pump Off" style="rounded=1;whiteSpace=wrap;html=1;fontColor=#FFFFFF;labelBackgroundColor=none;" vertex="1" parent="WIyWlLk6GJQsqaUBKTNV-1">
          <mxGeometry x="495" y="540" width="120" height="50" as="geometry" />
        </mxCell>
        <mxCell id="mvckCps3GvG-LsRMbmpY-114" value="Turn pump ON" style="rounded=1;whiteSpace=wrap;html=1;fontColor=#FFFFFF;labelBackgroundColor=none;" vertex="1" parent="WIyWlLk6GJQsqaUBKTNV-1">
          <mxGeometry x="507" y="290" width="120" height="60" as="geometry" />
        </mxCell>
      </root>
    </mxGraphModel>
  </diagram>
</mxfile>
